<mxfile host="app.diagrams.net" modified="2022-08-04T04:48:07.598Z" agent="5.0 (Windows NT 10.0; Win64; x64) AppleWebKit/537.36 (KHTML, like Gecko) Chrome/103.0.5060.134 Safari/537.36 Edg/103.0.1264.77" etag="NErnHyzWxiGBnPCSw9Uf" version="20.2.2" type="github">
  <diagram id="4H7yr6dnb38ixaK0uqv0" name="Page-1">
    <mxGraphModel dx="1483" dy="827" grid="1" gridSize="10" guides="1" tooltips="1" connect="1" arrows="1" fold="1" page="1" pageScale="1" pageWidth="827" pageHeight="1169" math="0" shadow="0">
      <root>
        <mxCell id="0" />
        <mxCell id="1" parent="0" />
        <mxCell id="jd1qz2Rt7AOelmPZwAfq-1" value="" style="group" vertex="1" connectable="0" parent="1">
          <mxGeometry x="840" y="70" width="800" height="220" as="geometry" />
        </mxCell>
        <mxCell id="jd1qz2Rt7AOelmPZwAfq-2" value="&lt;span style=&quot;font-weight: normal;&quot;&gt;&lt;font style=&quot;font-size: 18px;&quot;&gt;X&lt;sub style=&quot;&quot;&gt;t1, t2&lt;/sub&gt;&lt;/font&gt;&lt;/span&gt;" style="text;html=1;strokeColor=none;fillColor=none;align=center;verticalAlign=middle;whiteSpace=wrap;rounded=0;fontStyle=1" vertex="1" parent="jd1qz2Rt7AOelmPZwAfq-1">
          <mxGeometry x="210" y="66" width="70" height="30" as="geometry" />
        </mxCell>
        <mxCell id="jd1qz2Rt7AOelmPZwAfq-3" value="&lt;font style=&quot;font-size: 18px;&quot;&gt;g(X&lt;sub style=&quot;&quot;&gt;t1, t2&lt;/sub&gt;)&lt;/font&gt;" style="text;html=1;strokeColor=none;fillColor=none;align=center;verticalAlign=middle;whiteSpace=wrap;rounded=0;" vertex="1" parent="jd1qz2Rt7AOelmPZwAfq-1">
          <mxGeometry x="201" y="186" width="90" height="30" as="geometry" />
        </mxCell>
        <mxCell id="jd1qz2Rt7AOelmPZwAfq-4" value="" style="sketch=0;outlineConnect=0;fontColor=#232F3E;gradientColor=none;fillColor=#067F68;strokeColor=none;dashed=0;verticalLabelPosition=bottom;verticalAlign=top;align=center;html=1;fontSize=12;fontStyle=0;aspect=fixed;pointerEvents=1;shape=mxgraph.aws4.sagemaker_model;rounded=0;fillStyle=auto;labelPosition=center;" vertex="1" parent="jd1qz2Rt7AOelmPZwAfq-1">
          <mxGeometry x="376" y="62" width="38" height="38" as="geometry" />
        </mxCell>
        <mxCell id="jd1qz2Rt7AOelmPZwAfq-5" value="&lt;font style=&quot;font-size: 18px;&quot;&gt;&lt;font style=&quot;&quot;&gt;f(&lt;span style=&quot;font-weight: normal;&quot;&gt;X&lt;sub&gt;t1, t2&lt;/sub&gt;&lt;/span&gt;&lt;/font&gt;&lt;font style=&quot;&quot;&gt;)&lt;/font&gt;&lt;/font&gt;" style="text;html=1;strokeColor=none;fillColor=none;align=center;verticalAlign=middle;whiteSpace=wrap;rounded=0;fontStyle=1" vertex="1" parent="jd1qz2Rt7AOelmPZwAfq-1">
          <mxGeometry x="520" y="66" width="70" height="30" as="geometry" />
        </mxCell>
        <mxCell id="jd1qz2Rt7AOelmPZwAfq-6" value="&lt;font style=&quot;font-size: 18px;&quot;&gt;&lt;font style=&quot;&quot;&gt;f(&lt;span style=&quot;font-weight: normal;&quot;&gt;g(&lt;/span&gt;&lt;span style=&quot;font-weight: normal;&quot;&gt;X&lt;sub&gt;t1, t2&lt;/sub&gt;&lt;/span&gt;&lt;/font&gt;&lt;font style=&quot;&quot;&gt;&lt;span style=&quot;font-weight: normal;&quot;&gt;)&lt;/span&gt;)&lt;/font&gt;&lt;/font&gt;" style="text;html=1;strokeColor=none;fillColor=none;align=center;verticalAlign=middle;whiteSpace=wrap;rounded=0;fontStyle=1" vertex="1" parent="jd1qz2Rt7AOelmPZwAfq-1">
          <mxGeometry x="520" y="186" width="90" height="30" as="geometry" />
        </mxCell>
        <mxCell id="jd1qz2Rt7AOelmPZwAfq-7" value="" style="sketch=0;outlineConnect=0;fontColor=#232F3E;gradientColor=none;fillColor=#067F68;strokeColor=none;dashed=0;verticalLabelPosition=bottom;verticalAlign=top;align=center;html=1;fontSize=12;fontStyle=0;aspect=fixed;pointerEvents=1;shape=mxgraph.aws4.sagemaker_model;rounded=0;fillStyle=auto;labelPosition=center;" vertex="1" parent="jd1qz2Rt7AOelmPZwAfq-1">
          <mxGeometry x="376" y="182" width="38" height="38" as="geometry" />
        </mxCell>
        <mxCell id="jd1qz2Rt7AOelmPZwAfq-8" value="&lt;b&gt;&lt;font style=&quot;font-size: 18px;&quot;&gt;Compare&lt;/font&gt;&lt;/b&gt;&lt;br&gt;Pass/Fail" style="rounded=0;whiteSpace=wrap;html=1;" vertex="1" parent="jd1qz2Rt7AOelmPZwAfq-1">
          <mxGeometry x="650" y="110" width="150" height="60" as="geometry" />
        </mxCell>
        <mxCell id="jd1qz2Rt7AOelmPZwAfq-9" value="" style="curved=1;endArrow=classic;html=1;rounded=0;" edge="1" parent="jd1qz2Rt7AOelmPZwAfq-1">
          <mxGeometry width="50" height="50" relative="1" as="geometry">
            <mxPoint x="190" y="83" as="sourcePoint" />
            <mxPoint x="190" y="203" as="targetPoint" />
            <Array as="points">
              <mxPoint x="150" y="83" />
              <mxPoint x="130" y="110" />
              <mxPoint x="130" y="173" />
              <mxPoint x="150" y="203" />
            </Array>
          </mxGeometry>
        </mxCell>
        <mxCell id="jd1qz2Rt7AOelmPZwAfq-10" value="&lt;font style=&quot;font-size: 14px;&quot;&gt;&lt;b&gt;Metamorphic Transformation&lt;/b&gt;&lt;/font&gt;" style="text;html=1;strokeColor=none;fillColor=none;align=center;verticalAlign=middle;whiteSpace=wrap;rounded=0;" vertex="1" parent="jd1qz2Rt7AOelmPZwAfq-1">
          <mxGeometry y="125" width="116" height="30" as="geometry" />
        </mxCell>
        <mxCell id="jd1qz2Rt7AOelmPZwAfq-11" value="" style="html=1;shadow=0;dashed=0;align=center;verticalAlign=middle;shape=mxgraph.arrows2.arrow;dy=0.67;dx=20;notch=0;fontSize=14;fillColor=#0050ef;fontColor=#ffffff;strokeColor=#001DBC;" vertex="1" parent="jd1qz2Rt7AOelmPZwAfq-1">
          <mxGeometry x="281" y="66" width="80" height="30" as="geometry" />
        </mxCell>
        <mxCell id="jd1qz2Rt7AOelmPZwAfq-12" value="" style="html=1;shadow=0;dashed=0;align=center;verticalAlign=middle;shape=mxgraph.arrows2.arrow;dy=0.67;dx=20;notch=0;fontSize=14;fillColor=#0050ef;fontColor=#ffffff;strokeColor=#001DBC;" vertex="1" parent="jd1qz2Rt7AOelmPZwAfq-1">
          <mxGeometry x="281" y="186" width="80" height="30" as="geometry" />
        </mxCell>
        <mxCell id="jd1qz2Rt7AOelmPZwAfq-13" value="" style="html=1;shadow=0;dashed=0;align=center;verticalAlign=middle;shape=mxgraph.arrows2.arrow;dy=0.67;dx=20;notch=0;fontSize=14;fillColor=#0050ef;fontColor=#ffffff;strokeColor=#001DBC;" vertex="1" parent="jd1qz2Rt7AOelmPZwAfq-1">
          <mxGeometry x="430" y="186" width="80" height="30" as="geometry" />
        </mxCell>
        <mxCell id="jd1qz2Rt7AOelmPZwAfq-14" value="" style="html=1;shadow=0;dashed=0;align=center;verticalAlign=middle;shape=mxgraph.arrows2.arrow;dy=0.67;dx=20;notch=0;fontSize=14;fillColor=#0050ef;fontColor=#ffffff;strokeColor=#001DBC;" vertex="1" parent="jd1qz2Rt7AOelmPZwAfq-1">
          <mxGeometry x="430" y="66" width="80" height="30" as="geometry" />
        </mxCell>
        <mxCell id="jd1qz2Rt7AOelmPZwAfq-15" value="" style="endArrow=classic;html=1;rounded=0;fontSize=14;dashed=1;exitX=1;exitY=0.5;exitDx=0;exitDy=0;entryX=0.5;entryY=0;entryDx=0;entryDy=0;" edge="1" parent="jd1qz2Rt7AOelmPZwAfq-1" source="jd1qz2Rt7AOelmPZwAfq-5" target="jd1qz2Rt7AOelmPZwAfq-8">
          <mxGeometry width="50" height="50" relative="1" as="geometry">
            <mxPoint x="660" y="80" as="sourcePoint" />
            <mxPoint x="710" y="30" as="targetPoint" />
            <Array as="points">
              <mxPoint x="725" y="80" />
            </Array>
          </mxGeometry>
        </mxCell>
        <mxCell id="jd1qz2Rt7AOelmPZwAfq-16" value="" style="endArrow=classic;html=1;rounded=0;fontSize=14;dashed=1;exitX=1;exitY=0.5;exitDx=0;exitDy=0;entryX=0.5;entryY=1;entryDx=0;entryDy=0;" edge="1" parent="jd1qz2Rt7AOelmPZwAfq-1" source="jd1qz2Rt7AOelmPZwAfq-6" target="jd1qz2Rt7AOelmPZwAfq-8">
          <mxGeometry width="50" height="50" relative="1" as="geometry">
            <mxPoint x="613" y="217" as="sourcePoint" />
            <mxPoint x="742" y="246" as="targetPoint" />
            <Array as="points">
              <mxPoint x="725" y="200" />
            </Array>
          </mxGeometry>
        </mxCell>
        <mxCell id="jd1qz2Rt7AOelmPZwAfq-17" value="&lt;font style=&quot;font-size: 18px;&quot;&gt;Inputs&lt;/font&gt;" style="text;strokeColor=none;fillColor=none;html=1;fontSize=24;fontStyle=1;verticalAlign=middle;align=center;" vertex="1" parent="jd1qz2Rt7AOelmPZwAfq-1">
          <mxGeometry x="191" width="100" height="40" as="geometry" />
        </mxCell>
        <mxCell id="jd1qz2Rt7AOelmPZwAfq-18" value="&lt;font style=&quot;font-size: 18px;&quot;&gt;Model&lt;br&gt;&lt;/font&gt;" style="text;strokeColor=none;fillColor=none;html=1;fontSize=24;fontStyle=1;verticalAlign=middle;align=center;" vertex="1" parent="jd1qz2Rt7AOelmPZwAfq-1">
          <mxGeometry x="351" width="100" height="40" as="geometry" />
        </mxCell>
        <mxCell id="jd1qz2Rt7AOelmPZwAfq-19" value="&lt;font style=&quot;font-size: 18px;&quot;&gt;Outputs&lt;/font&gt;" style="text;strokeColor=none;fillColor=none;html=1;fontSize=24;fontStyle=1;verticalAlign=middle;align=center;" vertex="1" parent="jd1qz2Rt7AOelmPZwAfq-1">
          <mxGeometry x="501" width="100" height="40" as="geometry" />
        </mxCell>
        <mxCell id="jd1qz2Rt7AOelmPZwAfq-20" value="" style="group" vertex="1" connectable="0" parent="1">
          <mxGeometry x="20" y="1025" width="1100" height="495" as="geometry" />
        </mxCell>
        <mxCell id="jd1qz2Rt7AOelmPZwAfq-21" value="&lt;font style=&quot;font-size: 12px;&quot;&gt;Stage 3: Risk Assessment&lt;/font&gt;" style="html=1;fontColor=#000000;fontStyle=1;align=left;verticalAlign=top;spacing=0;labelBorderColor=none;fillColor=none;dashed=1;strokeWidth=1;strokeColor=#000000;spacingLeft=4;spacingTop=-3;rounded=0;shadow=0;glass=0;sketch=0;fillStyle=auto;fontSize=14;" vertex="1" parent="jd1qz2Rt7AOelmPZwAfq-20">
          <mxGeometry x="150" y="274" width="600" height="220" as="geometry" />
        </mxCell>
        <mxCell id="jd1qz2Rt7AOelmPZwAfq-22" value="&lt;font color=&quot;#000000&quot;&gt;Stage 2: Bias Identification&lt;/font&gt;" style="html=1;fontColor=#FF3333;fontStyle=1;align=left;verticalAlign=top;spacing=0;labelBorderColor=none;fillColor=none;dashed=1;strokeWidth=1;strokeColor=#000000;spacingLeft=4;spacingTop=-3;" vertex="1" parent="jd1qz2Rt7AOelmPZwAfq-20">
          <mxGeometry x="776" width="324" height="495" as="geometry" />
        </mxCell>
        <mxCell id="jd1qz2Rt7AOelmPZwAfq-23" value="&lt;font color=&quot;#000000&quot;&gt;Stage 1: Test Input Generation&lt;/font&gt;" style="html=1;fontColor=#FF3333;fontStyle=1;align=left;verticalAlign=top;spacing=0;labelBorderColor=none;fillColor=none;dashed=1;strokeWidth=1;strokeColor=#000000;spacingLeft=4;spacingTop=-3;" vertex="1" parent="jd1qz2Rt7AOelmPZwAfq-20">
          <mxGeometry x="150" width="600" height="230" as="geometry" />
        </mxCell>
        <mxCell id="jd1qz2Rt7AOelmPZwAfq-24" value="&lt;font style=&quot;font-size: 18px;&quot;&gt;Input Parameter Model Generation&lt;/font&gt;" style="rounded=0;whiteSpace=wrap;html=1;fontSize=18;" vertex="1" parent="jd1qz2Rt7AOelmPZwAfq-20">
          <mxGeometry x="180" y="80" width="150" height="70" as="geometry" />
        </mxCell>
        <mxCell id="jd1qz2Rt7AOelmPZwAfq-25" value="" style="edgeStyle=orthogonalEdgeStyle;rounded=0;orthogonalLoop=1;jettySize=auto;html=1;" edge="1" parent="jd1qz2Rt7AOelmPZwAfq-20" source="jd1qz2Rt7AOelmPZwAfq-26" target="jd1qz2Rt7AOelmPZwAfq-24">
          <mxGeometry relative="1" as="geometry" />
        </mxCell>
        <mxCell id="jd1qz2Rt7AOelmPZwAfq-26" value="Training Dataset" style="strokeWidth=2;html=1;shape=mxgraph.flowchart.document2;whiteSpace=wrap;size=0.25;fontSize=18;" vertex="1" parent="jd1qz2Rt7AOelmPZwAfq-20">
          <mxGeometry y="77.5" width="110" height="75" as="geometry" />
        </mxCell>
        <mxCell id="jd1qz2Rt7AOelmPZwAfq-27" value="&lt;font style=&quot;font-size: 18px;&quot;&gt;Metamorphic Relations Identification&lt;/font&gt;" style="whiteSpace=wrap;html=1;rounded=0;fontSize=18;" vertex="1" parent="jd1qz2Rt7AOelmPZwAfq-20">
          <mxGeometry x="401" y="10" width="120" height="80" as="geometry" />
        </mxCell>
        <mxCell id="jd1qz2Rt7AOelmPZwAfq-28" value="" style="edgeStyle=orthogonalEdgeStyle;rounded=0;orthogonalLoop=1;jettySize=auto;html=1;entryX=0;entryY=0.5;entryDx=0;entryDy=0;exitX=0.5;exitY=0;exitDx=0;exitDy=0;" edge="1" parent="jd1qz2Rt7AOelmPZwAfq-20" source="jd1qz2Rt7AOelmPZwAfq-24" target="jd1qz2Rt7AOelmPZwAfq-27">
          <mxGeometry relative="1" as="geometry">
            <mxPoint x="380" y="70" as="targetPoint" />
            <Array as="points">
              <mxPoint x="240" y="50" />
            </Array>
          </mxGeometry>
        </mxCell>
        <mxCell id="jd1qz2Rt7AOelmPZwAfq-29" value="&lt;font style=&quot;font-size: 18px;&quot;&gt;Mutation Generation&amp;nbsp;&lt;/font&gt;" style="whiteSpace=wrap;html=1;rounded=0;fontSize=18;" vertex="1" parent="jd1qz2Rt7AOelmPZwAfq-20">
          <mxGeometry x="600" y="85" width="120" height="60" as="geometry" />
        </mxCell>
        <mxCell id="jd1qz2Rt7AOelmPZwAfq-30" value="" style="edgeStyle=none;rounded=0;orthogonalLoop=1;jettySize=auto;html=1;entryX=0.5;entryY=0;entryDx=0;entryDy=0;exitX=1;exitY=0.5;exitDx=0;exitDy=0;" edge="1" parent="jd1qz2Rt7AOelmPZwAfq-20" source="jd1qz2Rt7AOelmPZwAfq-27" target="jd1qz2Rt7AOelmPZwAfq-29">
          <mxGeometry relative="1" as="geometry">
            <Array as="points">
              <mxPoint x="660" y="50" />
            </Array>
          </mxGeometry>
        </mxCell>
        <mxCell id="jd1qz2Rt7AOelmPZwAfq-31" value="Bias Risk &lt;br style=&quot;font-size: 18px;&quot;&gt;Analysis" style="rounded=0;whiteSpace=wrap;html=1;fontSize=18;" vertex="1" parent="jd1qz2Rt7AOelmPZwAfq-20">
          <mxGeometry x="590" y="340" width="120" height="60" as="geometry" />
        </mxCell>
        <mxCell id="jd1qz2Rt7AOelmPZwAfq-32" value="Bias Risk Evaluation and Ranking" style="whiteSpace=wrap;html=1;rounded=0;fontSize=18;" vertex="1" parent="jd1qz2Rt7AOelmPZwAfq-20">
          <mxGeometry x="394" y="400" width="120" height="77.5" as="geometry" />
        </mxCell>
        <mxCell id="jd1qz2Rt7AOelmPZwAfq-33" value="" style="edgeStyle=none;rounded=0;orthogonalLoop=1;jettySize=auto;html=1;exitX=0;exitY=0.5;exitDx=0;exitDy=0;entryX=0.5;entryY=0;entryDx=0;entryDy=0;" edge="1" parent="jd1qz2Rt7AOelmPZwAfq-20" source="jd1qz2Rt7AOelmPZwAfq-31" target="jd1qz2Rt7AOelmPZwAfq-32">
          <mxGeometry relative="1" as="geometry">
            <Array as="points">
              <mxPoint x="454" y="370" />
            </Array>
          </mxGeometry>
        </mxCell>
        <mxCell id="jd1qz2Rt7AOelmPZwAfq-34" value="Ranked Biased Test cases" style="whiteSpace=wrap;html=1;rounded=0;fontSize=18;" vertex="1" parent="jd1qz2Rt7AOelmPZwAfq-20">
          <mxGeometry x="180" y="400" width="120" height="75" as="geometry" />
        </mxCell>
        <mxCell id="jd1qz2Rt7AOelmPZwAfq-35" value="" style="edgeStyle=none;rounded=0;orthogonalLoop=1;jettySize=auto;html=1;" edge="1" parent="jd1qz2Rt7AOelmPZwAfq-20" source="jd1qz2Rt7AOelmPZwAfq-32" target="jd1qz2Rt7AOelmPZwAfq-34">
          <mxGeometry relative="1" as="geometry" />
        </mxCell>
        <mxCell id="jd1qz2Rt7AOelmPZwAfq-36" value="" style="edgeStyle=none;rounded=0;orthogonalLoop=1;jettySize=auto;html=1;" edge="1" parent="jd1qz2Rt7AOelmPZwAfq-20" source="jd1qz2Rt7AOelmPZwAfq-37" target="jd1qz2Rt7AOelmPZwAfq-31">
          <mxGeometry relative="1" as="geometry" />
        </mxCell>
        <mxCell id="jd1qz2Rt7AOelmPZwAfq-37" value="Protected Attributes Correlation" style="rounded=0;whiteSpace=wrap;html=1;fontSize=18;" vertex="1" parent="jd1qz2Rt7AOelmPZwAfq-20">
          <mxGeometry x="796" y="332.5" width="120" height="75" as="geometry" />
        </mxCell>
        <mxCell id="jd1qz2Rt7AOelmPZwAfq-38" value="Model Retraining" style="whiteSpace=wrap;html=1;rounded=0;fontSize=18;" vertex="1" parent="jd1qz2Rt7AOelmPZwAfq-20">
          <mxGeometry x="180" y="306" width="120" height="60" as="geometry" />
        </mxCell>
        <mxCell id="jd1qz2Rt7AOelmPZwAfq-39" value="" style="edgeStyle=none;rounded=0;orthogonalLoop=1;jettySize=auto;html=1;" edge="1" parent="jd1qz2Rt7AOelmPZwAfq-20" source="jd1qz2Rt7AOelmPZwAfq-34" target="jd1qz2Rt7AOelmPZwAfq-38">
          <mxGeometry relative="1" as="geometry" />
        </mxCell>
        <mxCell id="jd1qz2Rt7AOelmPZwAfq-40" value="" style="edgeStyle=orthogonalEdgeStyle;rounded=0;orthogonalLoop=1;jettySize=auto;html=1;entryX=0.5;entryY=1;entryDx=0;entryDy=0;" edge="1" parent="jd1qz2Rt7AOelmPZwAfq-20" source="jd1qz2Rt7AOelmPZwAfq-41" target="jd1qz2Rt7AOelmPZwAfq-29">
          <mxGeometry relative="1" as="geometry">
            <mxPoint x="380" y="180" as="targetPoint" />
          </mxGeometry>
        </mxCell>
        <mxCell id="jd1qz2Rt7AOelmPZwAfq-41" value="&lt;font style=&quot;font-size: 18px;&quot;&gt;Test Case Generation&lt;/font&gt;" style="rounded=0;whiteSpace=wrap;html=1;fontSize=18;" vertex="1" parent="jd1qz2Rt7AOelmPZwAfq-20">
          <mxGeometry x="401" y="140" width="120" height="80" as="geometry" />
        </mxCell>
        <mxCell id="jd1qz2Rt7AOelmPZwAfq-42" value="" style="edgeStyle=orthogonalEdgeStyle;rounded=0;orthogonalLoop=1;jettySize=auto;html=1;exitX=0.5;exitY=1;exitDx=0;exitDy=0;entryX=0;entryY=0.5;entryDx=0;entryDy=0;" edge="1" parent="jd1qz2Rt7AOelmPZwAfq-20" source="jd1qz2Rt7AOelmPZwAfq-24" target="jd1qz2Rt7AOelmPZwAfq-41">
          <mxGeometry relative="1" as="geometry">
            <Array as="points">
              <mxPoint x="240" y="180" />
            </Array>
          </mxGeometry>
        </mxCell>
        <mxCell id="jd1qz2Rt7AOelmPZwAfq-43" value="Bias&lt;br style=&quot;font-size: 18px;&quot;&gt;Detected?" style="strokeWidth=2;html=1;shape=mxgraph.flowchart.decision;whiteSpace=wrap;rounded=0;fillStyle=auto;fontSize=18;gradientColor=none;" vertex="1" parent="jd1qz2Rt7AOelmPZwAfq-20">
          <mxGeometry x="970" y="192" width="120" height="120" as="geometry" />
        </mxCell>
        <mxCell id="jd1qz2Rt7AOelmPZwAfq-44" value="Bias Free" style="whiteSpace=wrap;html=1;fontSize=18;strokeWidth=1;rounded=0;fillStyle=auto;sketch=0;shadow=0;glass=0;fillColor=#60a917;strokeColor=#2D7600;fontColor=#ffffff;" vertex="1" parent="jd1qz2Rt7AOelmPZwAfq-20">
          <mxGeometry x="973" y="122.5" width="114" height="30" as="geometry" />
        </mxCell>
        <mxCell id="jd1qz2Rt7AOelmPZwAfq-45" value="" style="edgeStyle=orthogonalEdgeStyle;rounded=0;orthogonalLoop=1;jettySize=auto;html=1;fontSize=14;" edge="1" parent="jd1qz2Rt7AOelmPZwAfq-20" source="jd1qz2Rt7AOelmPZwAfq-43" target="jd1qz2Rt7AOelmPZwAfq-44">
          <mxGeometry relative="1" as="geometry" />
        </mxCell>
        <mxCell id="jd1qz2Rt7AOelmPZwAfq-46" value="" style="edgeStyle=orthogonalEdgeStyle;rounded=0;orthogonalLoop=1;jettySize=auto;html=1;shadow=0;fontSize=12;fontColor=#000000;labelBackgroundColor=default;entryX=1;entryY=0.5;entryDx=0;entryDy=0;" edge="1" parent="jd1qz2Rt7AOelmPZwAfq-20" source="jd1qz2Rt7AOelmPZwAfq-47" target="jd1qz2Rt7AOelmPZwAfq-37">
          <mxGeometry relative="1" as="geometry" />
        </mxCell>
        <mxCell id="jd1qz2Rt7AOelmPZwAfq-47" value="Bias Found" style="whiteSpace=wrap;html=1;fontSize=18;strokeWidth=1;rounded=0;fillStyle=auto;fillColor=#d80073;strokeColor=#A50040;fontColor=#ffffff;" vertex="1" parent="jd1qz2Rt7AOelmPZwAfq-20">
          <mxGeometry x="970" y="355" width="120" height="30" as="geometry" />
        </mxCell>
        <mxCell id="jd1qz2Rt7AOelmPZwAfq-48" value="" style="edgeStyle=orthogonalEdgeStyle;rounded=0;orthogonalLoop=1;jettySize=auto;html=1;fontSize=14;" edge="1" parent="jd1qz2Rt7AOelmPZwAfq-20" source="jd1qz2Rt7AOelmPZwAfq-43" target="jd1qz2Rt7AOelmPZwAfq-47">
          <mxGeometry relative="1" as="geometry" />
        </mxCell>
        <mxCell id="jd1qz2Rt7AOelmPZwAfq-49" value="&lt;font style=&quot;font-size: 18px;&quot;&gt;Model &lt;br&gt;Under Test&lt;/font&gt;" style="sketch=0;outlineConnect=0;fontColor=#232F3E;gradientColor=none;fillColor=#067F68;strokeColor=none;dashed=0;verticalLabelPosition=bottom;verticalAlign=top;align=center;html=1;fontSize=16;fontStyle=0;aspect=fixed;pointerEvents=1;shape=mxgraph.aws4.sagemaker_model;rounded=0;fillStyle=auto;labelPosition=center;" vertex="1" parent="jd1qz2Rt7AOelmPZwAfq-20">
          <mxGeometry x="25.5" y="307" width="58" height="58" as="geometry" />
        </mxCell>
        <mxCell id="jd1qz2Rt7AOelmPZwAfq-50" value="" style="edgeStyle=orthogonalEdgeStyle;rounded=0;orthogonalLoop=1;jettySize=auto;html=1;shadow=0;labelBackgroundColor=default;fontSize=12;fontColor=#000000;" edge="1" parent="jd1qz2Rt7AOelmPZwAfq-20" source="jd1qz2Rt7AOelmPZwAfq-38" target="jd1qz2Rt7AOelmPZwAfq-49">
          <mxGeometry relative="1" as="geometry">
            <mxPoint x="100" y="439" as="targetPoint" />
          </mxGeometry>
        </mxCell>
        <mxCell id="jd1qz2Rt7AOelmPZwAfq-51" value="" style="edgeStyle=orthogonalEdgeStyle;rounded=0;orthogonalLoop=1;jettySize=auto;html=1;shadow=0;labelBackgroundColor=default;fontSize=12;fontColor=#000000;" edge="1" parent="jd1qz2Rt7AOelmPZwAfq-20" source="jd1qz2Rt7AOelmPZwAfq-52" target="jd1qz2Rt7AOelmPZwAfq-43">
          <mxGeometry relative="1" as="geometry" />
        </mxCell>
        <mxCell id="jd1qz2Rt7AOelmPZwAfq-52" value="Bias &lt;br&gt;Detection" style="whiteSpace=wrap;html=1;rounded=0;fontSize=18;" vertex="1" parent="jd1qz2Rt7AOelmPZwAfq-20">
          <mxGeometry x="796" y="222" width="120" height="60" as="geometry" />
        </mxCell>
        <mxCell id="jd1qz2Rt7AOelmPZwAfq-53" value="" style="edgeStyle=orthogonalEdgeStyle;rounded=0;orthogonalLoop=1;jettySize=auto;html=1;shadow=0;labelBackgroundColor=default;fontSize=12;fontColor=#000000;entryX=0;entryY=0.5;entryDx=0;entryDy=0;" edge="1" parent="jd1qz2Rt7AOelmPZwAfq-20" source="jd1qz2Rt7AOelmPZwAfq-49" target="jd1qz2Rt7AOelmPZwAfq-52">
          <mxGeometry relative="1" as="geometry">
            <mxPoint x="54.5" y="228" as="targetPoint" />
            <Array as="points">
              <mxPoint x="55" y="252" />
            </Array>
          </mxGeometry>
        </mxCell>
        <mxCell id="jd1qz2Rt7AOelmPZwAfq-54" value="" style="edgeStyle=orthogonalEdgeStyle;rounded=0;orthogonalLoop=1;jettySize=auto;html=1;shadow=0;labelBackgroundColor=default;fontSize=12;fontColor=#000000;" edge="1" parent="jd1qz2Rt7AOelmPZwAfq-20" source="jd1qz2Rt7AOelmPZwAfq-29" target="jd1qz2Rt7AOelmPZwAfq-52">
          <mxGeometry relative="1" as="geometry" />
        </mxCell>
        <mxCell id="jd1qz2Rt7AOelmPZwAfq-55" value="&lt;div style=&quot;&quot;&gt;&lt;font style=&quot;font-size: 18px;&quot;&gt;Biased&lt;/font&gt;&lt;/div&gt;&lt;span style=&quot;color: rgb(0, 0, 0); font-family: Helvetica; font-style: normal; font-variant-ligatures: normal; font-variant-caps: normal; font-weight: 400; letter-spacing: normal; orphans: 2; text-indent: 0px; text-transform: none; widows: 2; word-spacing: 0px; -webkit-text-stroke-width: 0px; background-color: rgb(248, 249, 250); text-decoration-thickness: initial; text-decoration-style: initial; text-decoration-color: initial; float: none; display: inline !important;&quot;&gt;&lt;font size=&quot;3&quot;&gt;Test Cases&lt;/font&gt;&lt;/span&gt;" style="text;whiteSpace=wrap;html=1;fontSize=16;fontColor=#000000;align=center;" vertex="1" parent="jd1qz2Rt7AOelmPZwAfq-20">
          <mxGeometry x="9" y="435" width="91" height="40" as="geometry" />
        </mxCell>
        <mxCell id="jd1qz2Rt7AOelmPZwAfq-56" value="" style="edgeStyle=orthogonalEdgeStyle;rounded=0;orthogonalLoop=1;jettySize=auto;html=1;shadow=0;labelBackgroundColor=default;fontSize=12;fontColor=#000000;entryX=1;entryY=0.5;entryDx=0;entryDy=0;" edge="1" parent="jd1qz2Rt7AOelmPZwAfq-20" source="jd1qz2Rt7AOelmPZwAfq-34" target="jd1qz2Rt7AOelmPZwAfq-55">
          <mxGeometry relative="1" as="geometry">
            <mxPoint x="109" y="454" as="targetPoint" />
          </mxGeometry>
        </mxCell>
        <mxCell id="jd1qz2Rt7AOelmPZwAfq-98" value="" style="group" vertex="1" connectable="0" parent="1">
          <mxGeometry x="70" y="1594" width="1140" height="650" as="geometry" />
        </mxCell>
        <mxCell id="jd1qz2Rt7AOelmPZwAfq-96" value="" style="rounded=0;whiteSpace=wrap;html=1;shadow=0;glass=0;sketch=0;fillStyle=auto;fontSize=18;fontColor=#000000;strokeColor=default;fillColor=default;" vertex="1" parent="jd1qz2Rt7AOelmPZwAfq-98">
          <mxGeometry width="1140" height="650" as="geometry" />
        </mxCell>
        <mxCell id="jd1qz2Rt7AOelmPZwAfq-58" value="&lt;font style=&quot;font-size: 12px;&quot;&gt;Stage 3: Risk Assessment&lt;/font&gt;" style="html=1;fontColor=#000000;fontStyle=1;align=left;verticalAlign=top;spacing=0;labelBorderColor=none;fillColor=none;dashed=1;strokeWidth=1;strokeColor=#000000;spacingLeft=4;spacingTop=-3;rounded=0;shadow=0;glass=0;sketch=0;fillStyle=auto;fontSize=14;" vertex="1" parent="jd1qz2Rt7AOelmPZwAfq-98">
          <mxGeometry x="170" y="366" width="600" height="192" as="geometry" />
        </mxCell>
        <mxCell id="jd1qz2Rt7AOelmPZwAfq-59" value="&lt;font color=&quot;#000000&quot;&gt;Stage 2: Bias Identification&lt;/font&gt;" style="html=1;fontColor=#FF3333;fontStyle=1;align=left;verticalAlign=top;spacing=0;labelBorderColor=none;fillColor=none;dashed=1;strokeWidth=1;strokeColor=#000000;spacingLeft=4;spacingTop=-3;" vertex="1" parent="jd1qz2Rt7AOelmPZwAfq-98">
          <mxGeometry x="796" y="92" width="324" height="466" as="geometry" />
        </mxCell>
        <mxCell id="jd1qz2Rt7AOelmPZwAfq-60" value="&lt;font color=&quot;#000000&quot;&gt;Stage 1: Test Input Generation&lt;/font&gt;" style="html=1;fontColor=#FF3333;fontStyle=1;align=left;verticalAlign=top;spacing=0;labelBorderColor=none;fillColor=none;dashed=1;strokeWidth=1;strokeColor=#000000;spacingLeft=4;spacingTop=-3;" vertex="1" parent="jd1qz2Rt7AOelmPZwAfq-98">
          <mxGeometry x="170" y="92" width="600" height="230" as="geometry" />
        </mxCell>
        <mxCell id="jd1qz2Rt7AOelmPZwAfq-61" value="&lt;font style=&quot;font-size: 18px;&quot;&gt;Input Parameter Model Generation&lt;/font&gt;" style="rounded=0;whiteSpace=wrap;html=1;fontSize=18;" vertex="1" parent="jd1qz2Rt7AOelmPZwAfq-98">
          <mxGeometry x="200" y="172" width="150" height="70" as="geometry" />
        </mxCell>
        <mxCell id="jd1qz2Rt7AOelmPZwAfq-62" value="" style="edgeStyle=orthogonalEdgeStyle;rounded=0;orthogonalLoop=1;jettySize=auto;html=1;" edge="1" parent="jd1qz2Rt7AOelmPZwAfq-98" source="jd1qz2Rt7AOelmPZwAfq-63" target="jd1qz2Rt7AOelmPZwAfq-61">
          <mxGeometry relative="1" as="geometry" />
        </mxCell>
        <mxCell id="jd1qz2Rt7AOelmPZwAfq-63" value="Training Dataset" style="strokeWidth=2;html=1;shape=mxgraph.flowchart.document2;whiteSpace=wrap;size=0.25;fontSize=18;" vertex="1" parent="jd1qz2Rt7AOelmPZwAfq-98">
          <mxGeometry x="20" y="169.5" width="110" height="75" as="geometry" />
        </mxCell>
        <mxCell id="jd1qz2Rt7AOelmPZwAfq-64" value="&lt;font style=&quot;font-size: 18px;&quot;&gt;Metamorphic Relations Identification&lt;/font&gt;" style="whiteSpace=wrap;html=1;rounded=0;fontSize=18;" vertex="1" parent="jd1qz2Rt7AOelmPZwAfq-98">
          <mxGeometry x="421" y="102" width="120" height="80" as="geometry" />
        </mxCell>
        <mxCell id="jd1qz2Rt7AOelmPZwAfq-65" value="" style="edgeStyle=orthogonalEdgeStyle;rounded=0;orthogonalLoop=1;jettySize=auto;html=1;entryX=0;entryY=0.5;entryDx=0;entryDy=0;exitX=0.5;exitY=0;exitDx=0;exitDy=0;" edge="1" parent="jd1qz2Rt7AOelmPZwAfq-98" source="jd1qz2Rt7AOelmPZwAfq-61" target="jd1qz2Rt7AOelmPZwAfq-64">
          <mxGeometry relative="1" as="geometry">
            <mxPoint x="400" y="162" as="targetPoint" />
            <Array as="points">
              <mxPoint x="260" y="142" />
            </Array>
          </mxGeometry>
        </mxCell>
        <mxCell id="jd1qz2Rt7AOelmPZwAfq-66" value="&lt;font style=&quot;font-size: 18px;&quot;&gt;Mutation Generation&amp;nbsp;&lt;/font&gt;" style="whiteSpace=wrap;html=1;rounded=0;fontSize=18;" vertex="1" parent="jd1qz2Rt7AOelmPZwAfq-98">
          <mxGeometry x="620" y="177" width="120" height="60" as="geometry" />
        </mxCell>
        <mxCell id="jd1qz2Rt7AOelmPZwAfq-67" value="" style="edgeStyle=none;rounded=0;orthogonalLoop=1;jettySize=auto;html=1;entryX=0.5;entryY=0;entryDx=0;entryDy=0;exitX=1;exitY=0.5;exitDx=0;exitDy=0;" edge="1" parent="jd1qz2Rt7AOelmPZwAfq-98" source="jd1qz2Rt7AOelmPZwAfq-64" target="jd1qz2Rt7AOelmPZwAfq-66">
          <mxGeometry relative="1" as="geometry">
            <Array as="points">
              <mxPoint x="680" y="142" />
            </Array>
          </mxGeometry>
        </mxCell>
        <mxCell id="jd1qz2Rt7AOelmPZwAfq-69" value="Bias Risk Evaluation and Ranking" style="whiteSpace=wrap;html=1;rounded=0;fontSize=18;" vertex="1" parent="jd1qz2Rt7AOelmPZwAfq-98">
          <mxGeometry x="600" y="416.75" width="120" height="77.5" as="geometry" />
        </mxCell>
        <mxCell id="jd1qz2Rt7AOelmPZwAfq-71" value="Ranked Biased Test cases" style="whiteSpace=wrap;html=1;rounded=0;fontSize=18;" vertex="1" parent="jd1qz2Rt7AOelmPZwAfq-98">
          <mxGeometry x="410" y="416" width="120" height="80" as="geometry" />
        </mxCell>
        <mxCell id="jd1qz2Rt7AOelmPZwAfq-72" value="" style="edgeStyle=none;rounded=0;orthogonalLoop=1;jettySize=auto;html=1;" edge="1" parent="jd1qz2Rt7AOelmPZwAfq-98" source="jd1qz2Rt7AOelmPZwAfq-69" target="jd1qz2Rt7AOelmPZwAfq-71">
          <mxGeometry relative="1" as="geometry" />
        </mxCell>
        <mxCell id="jd1qz2Rt7AOelmPZwAfq-94" value="" style="edgeStyle=orthogonalEdgeStyle;rounded=0;orthogonalLoop=1;jettySize=auto;html=1;fontSize=18;" edge="1" parent="jd1qz2Rt7AOelmPZwAfq-98" source="jd1qz2Rt7AOelmPZwAfq-74" target="jd1qz2Rt7AOelmPZwAfq-69">
          <mxGeometry relative="1" as="geometry" />
        </mxCell>
        <mxCell id="jd1qz2Rt7AOelmPZwAfq-74" value="Protected Attributes Correlation" style="rounded=0;whiteSpace=wrap;html=1;fontSize=18;" vertex="1" parent="jd1qz2Rt7AOelmPZwAfq-98">
          <mxGeometry x="816" y="419" width="120" height="72" as="geometry" />
        </mxCell>
        <mxCell id="jd1qz2Rt7AOelmPZwAfq-75" value="Model Retraining" style="whiteSpace=wrap;html=1;rounded=0;fontSize=18;" vertex="1" parent="jd1qz2Rt7AOelmPZwAfq-98">
          <mxGeometry x="200" y="425" width="120" height="60" as="geometry" />
        </mxCell>
        <mxCell id="jd1qz2Rt7AOelmPZwAfq-76" value="" style="edgeStyle=none;rounded=0;orthogonalLoop=1;jettySize=auto;html=1;" edge="1" parent="jd1qz2Rt7AOelmPZwAfq-98" source="jd1qz2Rt7AOelmPZwAfq-71" target="jd1qz2Rt7AOelmPZwAfq-75">
          <mxGeometry relative="1" as="geometry" />
        </mxCell>
        <mxCell id="jd1qz2Rt7AOelmPZwAfq-77" value="" style="edgeStyle=orthogonalEdgeStyle;rounded=0;orthogonalLoop=1;jettySize=auto;html=1;entryX=0.5;entryY=1;entryDx=0;entryDy=0;" edge="1" parent="jd1qz2Rt7AOelmPZwAfq-98" source="jd1qz2Rt7AOelmPZwAfq-78" target="jd1qz2Rt7AOelmPZwAfq-66">
          <mxGeometry relative="1" as="geometry">
            <mxPoint x="400" y="272" as="targetPoint" />
          </mxGeometry>
        </mxCell>
        <mxCell id="jd1qz2Rt7AOelmPZwAfq-78" value="&lt;font style=&quot;font-size: 18px;&quot;&gt;Test Case Generation&lt;/font&gt;" style="rounded=0;whiteSpace=wrap;html=1;fontSize=18;" vertex="1" parent="jd1qz2Rt7AOelmPZwAfq-98">
          <mxGeometry x="421" y="232" width="120" height="80" as="geometry" />
        </mxCell>
        <mxCell id="jd1qz2Rt7AOelmPZwAfq-79" value="" style="edgeStyle=orthogonalEdgeStyle;rounded=0;orthogonalLoop=1;jettySize=auto;html=1;exitX=0.5;exitY=1;exitDx=0;exitDy=0;entryX=0;entryY=0.5;entryDx=0;entryDy=0;" edge="1" parent="jd1qz2Rt7AOelmPZwAfq-98" source="jd1qz2Rt7AOelmPZwAfq-61" target="jd1qz2Rt7AOelmPZwAfq-78">
          <mxGeometry relative="1" as="geometry">
            <Array as="points">
              <mxPoint x="260" y="272" />
            </Array>
          </mxGeometry>
        </mxCell>
        <mxCell id="jd1qz2Rt7AOelmPZwAfq-80" value="Bias&lt;br style=&quot;font-size: 18px;&quot;&gt;Detected?" style="strokeWidth=2;html=1;shape=mxgraph.flowchart.decision;whiteSpace=wrap;rounded=0;fillStyle=auto;fontSize=18;gradientColor=none;" vertex="1" parent="jd1qz2Rt7AOelmPZwAfq-98">
          <mxGeometry x="990" y="284" width="120" height="120" as="geometry" />
        </mxCell>
        <mxCell id="jd1qz2Rt7AOelmPZwAfq-81" value="Bias Free" style="whiteSpace=wrap;html=1;fontSize=18;strokeWidth=1;rounded=0;fillStyle=auto;sketch=0;shadow=0;glass=0;fillColor=#60a917;strokeColor=#2D7600;fontColor=#ffffff;" vertex="1" parent="jd1qz2Rt7AOelmPZwAfq-98">
          <mxGeometry x="993" y="214.5" width="114" height="30" as="geometry" />
        </mxCell>
        <mxCell id="jd1qz2Rt7AOelmPZwAfq-82" value="" style="edgeStyle=orthogonalEdgeStyle;rounded=0;orthogonalLoop=1;jettySize=auto;html=1;fontSize=14;" edge="1" parent="jd1qz2Rt7AOelmPZwAfq-98" source="jd1qz2Rt7AOelmPZwAfq-80" target="jd1qz2Rt7AOelmPZwAfq-81">
          <mxGeometry relative="1" as="geometry" />
        </mxCell>
        <mxCell id="jd1qz2Rt7AOelmPZwAfq-83" value="" style="edgeStyle=orthogonalEdgeStyle;rounded=0;orthogonalLoop=1;jettySize=auto;html=1;shadow=0;fontSize=12;fontColor=#000000;labelBackgroundColor=default;entryX=1;entryY=0.5;entryDx=0;entryDy=0;" edge="1" parent="jd1qz2Rt7AOelmPZwAfq-98" source="jd1qz2Rt7AOelmPZwAfq-84" target="jd1qz2Rt7AOelmPZwAfq-74">
          <mxGeometry relative="1" as="geometry" />
        </mxCell>
        <mxCell id="jd1qz2Rt7AOelmPZwAfq-84" value="Bias Found" style="whiteSpace=wrap;html=1;fontSize=18;strokeWidth=1;rounded=0;fillStyle=auto;fillColor=#d80073;strokeColor=#A50040;fontColor=#ffffff;" vertex="1" parent="jd1qz2Rt7AOelmPZwAfq-98">
          <mxGeometry x="990" y="440" width="120" height="30" as="geometry" />
        </mxCell>
        <mxCell id="jd1qz2Rt7AOelmPZwAfq-85" value="" style="edgeStyle=orthogonalEdgeStyle;rounded=0;orthogonalLoop=1;jettySize=auto;html=1;fontSize=14;" edge="1" parent="jd1qz2Rt7AOelmPZwAfq-98" source="jd1qz2Rt7AOelmPZwAfq-80" target="jd1qz2Rt7AOelmPZwAfq-84">
          <mxGeometry relative="1" as="geometry" />
        </mxCell>
        <mxCell id="jd1qz2Rt7AOelmPZwAfq-86" value="&lt;font style=&quot;font-size: 18px;&quot;&gt;Model &lt;br&gt;Under Test&lt;/font&gt;" style="sketch=0;outlineConnect=0;fontColor=#232F3E;gradientColor=none;fillColor=#067F68;strokeColor=none;dashed=0;verticalLabelPosition=bottom;verticalAlign=top;align=center;html=1;fontSize=16;fontStyle=0;aspect=fixed;pointerEvents=1;shape=mxgraph.aws4.sagemaker_model;rounded=0;fillStyle=auto;labelPosition=center;" vertex="1" parent="jd1qz2Rt7AOelmPZwAfq-98">
          <mxGeometry x="45.5" y="399" width="58" height="58" as="geometry" />
        </mxCell>
        <mxCell id="jd1qz2Rt7AOelmPZwAfq-87" value="" style="edgeStyle=orthogonalEdgeStyle;rounded=0;orthogonalLoop=1;jettySize=auto;html=1;shadow=0;labelBackgroundColor=default;fontSize=12;fontColor=#000000;" edge="1" parent="jd1qz2Rt7AOelmPZwAfq-98" source="jd1qz2Rt7AOelmPZwAfq-75" target="jd1qz2Rt7AOelmPZwAfq-86">
          <mxGeometry relative="1" as="geometry">
            <mxPoint x="120" y="531" as="targetPoint" />
          </mxGeometry>
        </mxCell>
        <mxCell id="jd1qz2Rt7AOelmPZwAfq-88" value="" style="edgeStyle=orthogonalEdgeStyle;rounded=0;orthogonalLoop=1;jettySize=auto;html=1;shadow=0;labelBackgroundColor=default;fontSize=12;fontColor=#000000;" edge="1" parent="jd1qz2Rt7AOelmPZwAfq-98" source="jd1qz2Rt7AOelmPZwAfq-89" target="jd1qz2Rt7AOelmPZwAfq-80">
          <mxGeometry relative="1" as="geometry" />
        </mxCell>
        <mxCell id="jd1qz2Rt7AOelmPZwAfq-89" value="Bias &lt;br&gt;Detection" style="whiteSpace=wrap;html=1;rounded=0;fontSize=18;" vertex="1" parent="jd1qz2Rt7AOelmPZwAfq-98">
          <mxGeometry x="816" y="314" width="120" height="60" as="geometry" />
        </mxCell>
        <mxCell id="jd1qz2Rt7AOelmPZwAfq-90" value="" style="edgeStyle=orthogonalEdgeStyle;rounded=0;orthogonalLoop=1;jettySize=auto;html=1;shadow=0;labelBackgroundColor=default;fontSize=12;fontColor=#000000;entryX=0;entryY=0.5;entryDx=0;entryDy=0;startArrow=none;" edge="1" parent="jd1qz2Rt7AOelmPZwAfq-98" source="jd1qz2Rt7AOelmPZwAfq-96" target="jd1qz2Rt7AOelmPZwAfq-89">
          <mxGeometry relative="1" as="geometry">
            <mxPoint x="74.5" y="320" as="targetPoint" />
            <Array as="points">
              <mxPoint x="75" y="344" />
            </Array>
          </mxGeometry>
        </mxCell>
        <mxCell id="jd1qz2Rt7AOelmPZwAfq-91" value="" style="edgeStyle=orthogonalEdgeStyle;rounded=0;orthogonalLoop=1;jettySize=auto;html=1;shadow=0;labelBackgroundColor=default;fontSize=12;fontColor=#000000;" edge="1" parent="jd1qz2Rt7AOelmPZwAfq-98" source="jd1qz2Rt7AOelmPZwAfq-66" target="jd1qz2Rt7AOelmPZwAfq-89">
          <mxGeometry relative="1" as="geometry" />
        </mxCell>
        <mxCell id="jd1qz2Rt7AOelmPZwAfq-92" value="&lt;div style=&quot;&quot;&gt;&lt;span style=&quot;font-size: 18px;&quot;&gt;Biased&amp;nbsp;&lt;/span&gt;&lt;/div&gt;&lt;div style=&quot;&quot;&gt;&lt;span style=&quot;font-size: 18px;&quot;&gt;Test Cases&lt;/span&gt;&lt;/div&gt;" style="text;whiteSpace=wrap;html=1;fontSize=16;align=center;fillColor=#f8cecc;strokeColor=#b85450;rounded=1;sketch=0;shadow=0;glass=0;fillStyle=auto;" vertex="1" parent="jd1qz2Rt7AOelmPZwAfq-98">
          <mxGeometry x="20" y="518" width="110" height="51" as="geometry" />
        </mxCell>
        <mxCell id="jd1qz2Rt7AOelmPZwAfq-93" value="" style="edgeStyle=orthogonalEdgeStyle;rounded=0;orthogonalLoop=1;jettySize=auto;html=1;shadow=0;labelBackgroundColor=default;fontSize=12;fontColor=#000000;entryX=1;entryY=0.5;entryDx=0;entryDy=0;exitX=0.5;exitY=1;exitDx=0;exitDy=0;" edge="1" parent="jd1qz2Rt7AOelmPZwAfq-98" source="jd1qz2Rt7AOelmPZwAfq-71" target="jd1qz2Rt7AOelmPZwAfq-92">
          <mxGeometry relative="1" as="geometry">
            <mxPoint x="129" y="546" as="targetPoint" />
          </mxGeometry>
        </mxCell>
      </root>
    </mxGraphModel>
  </diagram>
</mxfile>
